<?xml version="1.0" encoding="UTF-8"?>
<svg id="Laag_2" data-name="Laag 2" xmlns="http://www.w3.org/2000/svg" viewBox="0 0 768 768">
  <defs>
    <style>
      .cls-1, .cls-2 {
        stroke: #006837;
      }

      .cls-1, .cls-2, .cls-3 {
        stroke-miterlimit: 10;
        stroke-width: 18px;
      }

      .cls-1, .cls-3 {
        fill: none;
      }

      .cls-2 {
        fill: #006837;
      }

      .cls-3 {
        stroke: #fff;
        stroke-linecap: round;
      }
    </style>
  </defs>
  <path class="cls-2" d="M313.15,540.75c1.19,33.01,33.42,57,63.92,59,34.24,2.25,72.51-22.8,73.75-59,1.22-35.64-34.05-63.92-68.83-63.92-34.87,0-70.12,28.42-68.83,63.92Z"/>
  <path class="cls-1" d="M445.85,516.56c130.93-55.38,237.32-69.94,266.5-28.7,8.24,11.64,11.13,28.89,5.31,42.74-27.96,66.54-245.89,28.18-269.2,23.92"/>
  <path class="cls-1" d="M317.85,550.2c-135.52,41.69-239.94,39.57-264.57-5.81-11.19-20.61-5.84-50.01,8.92-67.56,35.92-42.69,140.38-30.44,260.63,38.8"/>
  <path class="cls-1" d="M342.75,492.69c-17.05-22.78-194.09-262.65-129.74-337.43,13.92-16.17,38.24-23.59,58.57-19.54,101.81,20.25,110.07,329.11,110.41,346.1"/>
  <path class="cls-1" d="M419.69,487.86c7.54-10.91,181.78-266.91,110.31-343.65-13.42-14.41-36.33-23.39-56.67-18.66-91.56,21.27-91.63,310.93-91.34,356.27"/>
  <path class="cls-1" d="M419.69,487.86c12.58-18.53,175.49-255.21,263.99-220.22,15.67,6.2,30.05,21.32,33.34,39.08,15.86,85.48-232.42,193.3-271.18,209.84"/>
  <path class="cls-3" d="M353.54,573.98c-4.28-57.5-2.61-70.83,0-71.23,2.98-.45,5.56,16.25,19.22,36.66,9.4,14.05,28.61,36.65,38.12,33.04,12.04-4.58,5.31-49.93,1.88-69.71"/>
</svg>