<?xml version="1.0" encoding="UTF-8"?>
<svg id="Laag_2" data-name="Laag 2" xmlns="http://www.w3.org/2000/svg" viewBox="0 0 768 768">
  <defs>
    <style>
      .cls-1, .cls-2, .cls-3, .cls-4 {
        stroke-miterlimit: 10;
        stroke-width: 14px;
      }

      .cls-1, .cls-2, .cls-4 {
        stroke: #006837;
      }

      .cls-1, .cls-3, .cls-4 {
        fill: none;
      }

      .cls-2 {
        fill: #006837;
      }

      .cls-3 {
        stroke: #fff;
      }

      .cls-3, .cls-4 {
        stroke-linecap: round;
      }
    </style>
  </defs>
  <path class="cls-2" d="M314.35,380.33c.91,25.11,25.42,43.36,48.62,44.88,26.05,1.71,55.16-17.34,56.1-44.88.93-27.11-25.9-48.62-52.36-48.62-26.53,0-53.34,21.62-52.36,48.62Z"/>
  <path class="cls-1" d="M415.29,361.92c99.6-42.13,180.53-53.21,202.72-21.83,6.27,8.86,8.47,21.98,4.04,32.51-21.27,50.61-187.05,21.43-204.78,18.19"/>
  <path class="cls-1" d="M317.92,387.52c-103.09,31.71-182.52,30.1-201.26-4.42-8.51-15.68-4.44-38.04,6.79-51.39,27.32-32.48,106.79-23.16,198.26,29.51"/>
  <path class="cls-1" d="M336.86,343.77c-12.97-17.33-147.65-199.8-98.7-256.68,10.59-12.3,29.09-17.94,44.55-14.87,77.45,15.4,83.73,250.35,83.99,263.28"/>
  <path class="cls-1" d="M395.39,340.09c5.73-8.3,138.28-203.04,83.91-261.41-10.21-10.96-27.63-17.79-43.11-14.2-69.65,16.18-69.7,236.53-69.49,271.01"/>
  <path class="cls-1" d="M395.39,340.09c9.57-14.1,133.49-194.14,200.82-167.52,11.92,4.71,22.86,16.22,25.36,29.72,12.06,65.02-176.8,147.05-206.28,159.63"/>
  <path class="cls-4" d="M397.74,742.55c-11.95-30.96-23.46-68.4-31.03-111.62-14.62-83.53-8.68-155.31-.02-205.61"/>
  <path class="cls-1" d="M361.93,600.46c66.18-29.03,104.66-67.65,98.35-95.47-2.64-11.63-13.54-23.26-25.52-24.26-38.01-3.17-71.61,101.95-74.11,109.96"/>
  <path class="cls-3" d="M345.07,405.61c-3.26-43.74-1.99-53.88,0-54.18,2.27-.35,4.23,12.36,14.62,27.89,7.15,10.69,21.76,27.88,29,25.13,9.16-3.48,4.04-37.98,1.43-53.03"/>
</svg>